HIERARCHY
ROOT Hips
{
	OFFSET 0.000000 0.000000 0.000000
	CHANNELS 6 Xposition Yposition Zposition Xrotation Yrotation Zrotation
	JOINT LeftUpLeg_virtual
	{
		OFFSET 0.000000 0.000000 0.000000
		CHANNELS 3 Xrotation Yrotation Zrotation
		JOINT LeftUpLeg
		{
			OFFSET 13.026900 -6.336304 -1.092800
			CHANNELS 3 Xrotation Yrotation Zrotation
			JOINT LeftLeg
			{
				OFFSET 0.524474 -46.096886 9.782700
				CHANNELS 3 Xrotation Yrotation Zrotation
				JOINT LeftFoot
				{
					OFFSET -0.524474 -53.427422 -12.948200
					CHANNELS 3 Xrotation Yrotation Zrotation
					JOINT LeftToeBase
					{
						OFFSET 0.192200 -14.009700 16.364100
						CHANNELS 3 Xrotation Yrotation Zrotation
						JOINT LeftToe_End
						{
							OFFSET -1.784700 -0.561700 9.474800
							CHANNELS 3 Xrotation Yrotation Zrotation
							End Site
							{
								OFFSET 0 0 0
							}
						}
					}
				}
			}
		}
	}
	JOINT RightUpLeg_virtual
	{
		OFFSET 0.000000 0.000000 0.000000
		CHANNELS 3 Xrotation Yrotation Zrotation
		JOINT RightUpLeg
		{
			OFFSET -12.883000 -6.336304 -1.092800
			CHANNELS 3 Xrotation Yrotation Zrotation
			JOINT RightLeg
			{
				OFFSET -0.524587 -46.096825 9.782800
				CHANNELS 3 Xrotation Yrotation Zrotation
				JOINT RightFoot
				{
					OFFSET 0.524587 -53.427383 -12.948300
					CHANNELS 3 Xrotation Yrotation Zrotation
					JOINT RightToeBase
					{
						OFFSET -0.192200 -14.009700 16.364100
						CHANNELS 3 Xrotation Yrotation Zrotation
						JOINT RightToe_End
						{
							OFFSET 1.784700 -0.561700 9.474800
							CHANNELS 3 Xrotation Yrotation Zrotation
							End Site
							{
								OFFSET 0 0 0
							}
						}
					}
				}
			}
		}
	}
	JOINT Spine_virtual
	{
		OFFSET 0.000000 0.000000 0.000000
		CHANNELS 3 Xrotation Yrotation Zrotation
		JOINT Spine
		{
			OFFSET 0.072000 7.257294 -0.789700
			CHANNELS 3 Xrotation Yrotation Zrotation
			JOINT Spine1
			{
				OFFSET 0.000000 12.508769 -0.658067
				CHANNELS 3 Xrotation Yrotation Zrotation
				JOINT Spine1_split
				{
					OFFSET 0.000000 12.508769 -0.658067
					CHANNELS 3 Xrotation Yrotation Zrotation
					JOINT Spine2
					{
						OFFSET 0.000000 12.508769 -0.658067
						CHANNELS 3 Xrotation Yrotation Zrotation
						JOINT Neck_virtual
						{
							OFFSET 0.000000 0.000000 0.000000
							CHANNELS 3 Xrotation Yrotation Zrotation
							JOINT Neck
							{
								OFFSET 0.000000 14.033295 7.520400
								CHANNELS 3 Xrotation Yrotation Zrotation
								JOINT Head
								{
									OFFSET 0.000000 8.198502 5.703100
									CHANNELS 3 Xrotation Yrotation Zrotation
									JOINT HeadTop_End
									{
										OFFSET 0.000000 17.760803 13.332701
										CHANNELS 3 Xrotation Yrotation Zrotation
										End Site
										{
											OFFSET 0 0 0
										}
									}
								}
							}
						}
						JOINT LeftShoulder_virtual
						{
							OFFSET 0.000000 0.000000 0.000000
							CHANNELS 3 Xrotation Yrotation Zrotation
							JOINT LeftShoulder
							{
								OFFSET 6.292450 5.785301 -0.669000
								CHANNELS 3 Xrotation Yrotation Zrotation
								JOINT LeftShoulder_split
								{
									OFFSET 6.292450 5.785301 -0.669000
									CHANNELS 3 Xrotation Yrotation Zrotation
									JOINT LeftArm
									{
										OFFSET 13.907140 -6.093903 1.965100
										CHANNELS 3 Xrotation Yrotation Zrotation
										JOINT LeftForeArm
										{
											OFFSET 34.140198 0.000000 0.000000
											CHANNELS 3 Xrotation Yrotation Zrotation
											JOINT LeftHand
											{
												OFFSET 40.960209 0.000000 0.000000
												CHANNELS 3 Xrotation Yrotation Zrotation
												End Site
												{
													OFFSET 0 0 0
												}
											}
										}
									}
								}
							}
						}
						JOINT RightShoulder_virtual
						{
							OFFSET 0.000000 0.000000 0.000000
							CHANNELS 3 Xrotation Yrotation Zrotation
							JOINT RightShoulder
							{
								OFFSET -6.292450 5.785301 -0.669000
								CHANNELS 3 Xrotation Yrotation Zrotation
								JOINT RightShoulder_split
								{
									OFFSET -6.292450 5.785301 -0.669000
									CHANNELS 3 Xrotation Yrotation Zrotation
									JOINT RightArm
									{
										OFFSET -13.907140 -6.093903 1.965100
										CHANNELS 3 Xrotation Yrotation Zrotation
										JOINT RightForeArm
										{
											OFFSET -34.140198 0.000000 0.000000
											CHANNELS 3 Xrotation Yrotation Zrotation
											JOINT RightHand
											{
												OFFSET -40.960209 0.000000 0.000000
												CHANNELS 3 Xrotation Yrotation Zrotation
												End Site
												{
													OFFSET 0 0 0
												}
											}
										}
									}
								}
							}
						}
					}
				}
			}
		}
	}
}
MOTION
Frames: 9
Frame Time: 0.03333333
-42.075420 112.846535 -39.340611 0.000000 0.000000 0.000000 4.570947 1.146848 -3.257775 -45.377738 -0.987693 9.814875 44.393955 8.529930 0.877582 16.079269 10.482363 -7.559561 -0.000006 0.000000 -0.000001 0.000000 0.000000 0.000000 4.570947 1.146848 -3.257775 -2.116733 -12.002743 -6.388432 26.157005 -8.235583 -0.019390 -11.979130 -5.387808 14.655658 -7.940379 -0.000005 -0.000007 0.000000 0.000000 0.000000 4.570947 1.146848 -3.257775 1.881070 0.965368 -3.837692 2.892909 2.233309 -0.852139 0.000000 0.000000 0.000000 0.000000 0.000000 0.000000 2.920207 2.206553 -0.824568 -0.099919 1.610649 1.773292 -3.993612 9.216923 4.690507 0.000000 0.000000 0.000000 2.920207 2.206553 -0.824568 1.380880 -3.785533 -10.633353 0.000000 0.000000 0.000000 -12.976639 21.713950 -36.552037 0.000019 -68.123549 0.000014 0.000000 0.000000 0.000000 2.920207 2.206553 -0.824568 0.756992 -2.615171 10.735705 0.000000 0.000000 0.000000 -16.932720 -17.380275 42.253022 0.000002 11.334220 -0.000021 0.000000 0.000000 0.000000 
-40.869160 113.848076 -39.922230 0.000000 0.000000 0.000000 4.755897 -0.379709 -3.118277 -41.571222 -1.583871 13.117441 47.585276 8.505095 1.023756 16.391107 14.459831 -2.243683 -0.462089 -0.000017 0.000001 0.000000 0.000000 0.000000 4.755897 -0.379709 -3.118277 -3.138325 -11.655025 -8.151650 25.160042 -5.672285 0.040833 -9.583619 -3.416697 15.839772 -8.742658 0.000002 -0.000003 0.000000 0.000000 0.000000 4.755897 -0.379709 -3.118277 1.542476 1.674579 -4.074464 2.374024 3.259592 -1.400064 0.000000 0.000000 0.000000 0.000000 0.000000 0.000000 2.430398 3.238699 -1.364456 -0.224067 1.432991 2.227387 -4.033164 8.722012 5.409509 0.000000 0.000000 0.000000 2.430398 3.238699 -1.364456 1.467534 -4.240642 -11.592417 0.000000 0.000000 0.000000 5.654183 26.367486 -43.866818 0.000034 -67.796745 0.000047 0.000000 0.000000 0.000000 2.430398 3.238699 -1.364456 0.734775 -2.719269 10.596595 0.000000 0.000000 0.000000 -18.801311 -15.324288 39.607068 0.000000 12.657100 -0.000005 0.000000 0.000000 0.000000 
-39.509979 114.875984 -40.313999 0.000000 0.000000 0.000000 5.518010 -1.374391 -2.939649 -36.657632 -1.654352 16.719548 46.300073 8.475316 1.255112 16.051332 19.067409 0.814756 -0.681168 -0.000000 -0.000007 0.000000 0.000000 0.000000 5.518010 -1.374391 -2.939649 -4.003156 -11.269057 -9.648311 23.367590 -2.391148 0.188854 -7.439724 -2.266640 17.056698 -9.616479 -0.000009 -0.000001 0.000000 0.000000 0.000000 5.518010 -1.374391 -2.939649 1.108009 2.215771 -4.253652 1.667892 4.119296 -1.757986 0.000000 0.000000 0.000000 0.000000 0.000000 0.000000 1.751483 4.109060 -1.720882 -0.329440 1.250087 2.443577 -3.904389 7.989616 5.840143 0.000000 0.000000 0.000000 1.751483 4.109060 -1.720882 1.475786 -4.286669 -11.679665 0.000000 0.000000 0.000000 17.858452 29.300361 -52.334381 0.000034 -63.835303 0.000016 0.000000 0.000000 0.000000 1.751483 4.109060 -1.720882 0.694856 -2.907717 10.339740 0.000000 0.000000 0.000000 -19.916138 -14.501851 37.786751 0.000001 13.690953 -0.000001 0.000000 0.000000 0.000000 
-38.065063 115.677307 -40.565220 0.000000 0.000000 0.000000 6.527074 -1.257535 -2.850055 -31.397775 -0.884103 20.305683 41.248380 8.510820 1.469563 14.969802 23.325972 3.391148 0.000002 -0.000001 -0.000003 0.000000 0.000000 0.000000 6.527074 -1.257535 -2.850055 -4.131126 -10.815360 -10.557038 20.938109 0.253459 0.338080 -5.980437 -1.960094 18.175711 -10.155318 0.000004 -0.000001 0.000000 0.000000 0.000000 6.527074 -1.257535 -2.850055 0.680929 2.577290 -4.209484 0.935646 4.729538 -1.887954 0.000000 0.000000 0.000000 0.000000 0.000000 0.000000 1.033655 4.731258 -1.854255 -0.441560 1.030674 2.502777 -3.693575 6.947909 5.993751 0.000000 0.000000 0.000000 1.033655 4.731258 -1.854255 1.413561 -3.961267 -10.979310 0.000000 0.000000 0.000000 23.536379 32.038293 -58.288527 -0.000007 -58.385550 0.000015 0.000000 0.000000 0.000000 1.033655 4.731258 -1.854255 0.656534 -3.133576 10.169168 0.000000 0.000000 0.000000 -20.170496 -14.903036 36.224321 -0.000001 14.706342 0.000006 0.000000 0.000000 0.000000 
-36.439178 115.928558 -40.703632 0.000000 0.000000 0.000000 7.570333 0.390455 -2.956341 -26.991939 0.691309 23.691607 33.868685 8.489872 1.536539 15.670614 25.022543 5.491554 0.000002 0.000003 -0.000004 0.000000 0.000000 0.000000 7.570333 0.390455 -2.956341 -3.266874 -10.391378 -10.992765 18.313009 0.537084 0.332210 -5.712638 -1.816131 19.243962 -9.906786 0.000002 -0.000005 0.000000 0.000000 0.000000 7.570333 0.390455 -2.956341 0.300181 2.683770 -3.830799 0.246711 4.906921 -1.825425 0.000000 0.000000 0.000000 0.000000 0.000000 0.000000 0.336285 4.918689 -1.798401 -0.569948 0.777696 2.477531 -3.419245 5.726202 5.935748 0.000000 0.000000 0.000000 0.336285 4.918689 -1.798401 1.324392 -3.512355 -9.976234 0.000000 0.000000 0.000000 25.521272 34.898387 -60.939822 0.000008 -52.600424 -0.000007 0.000000 0.000000 0.000000 0.336285 4.918689 -1.798401 0.632753 -3.308891 10.128420 0.000000 0.000000 0.000000 -19.911548 -15.913002 34.488972 0.000004 15.415465 -0.000001 0.000000 0.000000 0.000000 
-34.523911 115.433647 -40.849140 0.000000 0.000000 0.000000 8.690927 3.615555 -3.048859 -24.592673 2.448641 26.555065 26.921998 8.263066 1.362046 19.341378 21.747824 4.420244 -0.321910 0.000000 -0.000004 0.000000 0.000000 0.000000 8.690927 3.615555 -3.048859 -1.974517 -10.216471 -11.453735 16.321896 -1.617652 0.111438 -6.875944 -1.917592 20.122040 -8.937888 -0.000003 0.000004 0.000000 0.000000 0.000000 8.690927 3.615555 -3.048859 -0.014226 2.523739 -3.498014 -0.355800 4.587630 -1.709304 0.000000 0.000000 0.000000 0.000000 0.000000 0.000000 -0.283455 4.605725 -1.687242 -0.815997 0.510348 2.395210 -2.922510 4.431052 5.691237 0.000000 0.000000 0.000000 -0.283455 4.605725 -1.687242 1.256911 -3.186815 -9.214858 0.000000 0.000000 0.000000 24.813198 37.801381 -60.386181 0.000018 -46.103470 0.000012 0.000000 0.000000 0.000000 -0.283455 4.605725 -1.687242 0.603883 -3.462550 9.954567 0.000000 0.000000 0.000000 -19.777419 -17.268911 33.057245 -0.000004 15.522247 0.000020 0.000000 0.000000 0.000000 
-32.110321 114.211723 -41.088093 0.000000 0.000000 0.000000 10.020769 8.035333 -3.029134 -24.461365 3.601481 28.479141 22.857568 7.927456 1.025828 23.271552 13.648814 -0.785377 -7.667699 0.098515 -2.311204 0.000000 0.000000 0.000000 10.020769 8.035333 -3.029134 -0.982127 -10.341254 -12.355545 15.620844 -5.259628 -0.223022 -9.382184 -2.296604 20.815744 -7.728465 -0.000001 0.000002 0.000000 0.000000 0.000000 10.020769 8.035333 -3.029134 -0.271442 2.208573 -3.465692 -0.898080 3.974732 -1.651769 0.000000 0.000000 0.000000 0.000000 0.000000 0.000000 -0.835449 3.998520 -1.631642 -1.298810 0.209404 2.240811 -2.214205 2.959957 5.321055 0.000000 0.000000 0.000000 -0.835449 3.998520 -1.631642 1.216188 -2.990603 -8.767601 0.000000 0.000000 0.000000 21.771436 40.002352 -57.452416 -0.000001 -38.901708 0.000003 0.000000 0.000000 0.000000 -0.835449 3.998520 -1.631642 0.558417 -3.614676 9.481944 0.000000 0.000000 0.000000 -19.764845 -19.003488 32.254476 0.000002 16.979589 -0.000014 0.000000 0.000000 0.000000 
-28.897764 112.533226 -41.462177 0.000000 0.000000 0.000000 11.411895 12.943427 -2.969233 -25.422133 3.814726 29.238722 22.185165 7.524831 0.746472 23.499303 4.785539 -10.622606 -15.317556 0.384779 -4.611781 0.000000 0.000000 0.000000 11.411895 12.943427 -2.969233 0.058941 -10.649428 -13.755655 15.303032 -7.984450 -0.340728 -12.213550 -3.706874 21.273498 -6.737891 0.000005 -0.000004 0.000000 0.000000 0.000000 11.411895 12.943427 -2.969233 -0.463723 1.894156 -3.602178 -1.289353 3.390165 -1.692115 0.000000 0.000000 0.000000 0.000000 0.000000 0.000000 -1.227489 3.421850 -1.672399 -1.961275 -0.125933 2.016265 -1.791768 1.248311 4.839402 0.000000 0.000000 0.000000 -1.227489 3.421850 -1.672399 1.184283 -2.828946 -8.442740 0.000000 0.000000 0.000000 17.773974 40.726441 -53.838638 0.000005 -32.745815 0.000003 0.000000 0.000000 0.000000 -1.227489 3.421850 -1.672399 0.511233 -3.756725 8.939212 0.000000 0.000000 0.000000 -19.439511 -20.968085 31.913653 0.000004 20.530775 -0.000006 0.000000 0.000000 0.000000 
-24.884642 110.721916 -42.037174 0.000000 0.000000 0.000000 12.373929 17.534945 -2.679390 -25.694007 3.654392 28.346564 23.339067 6.513041 0.649574 18.287242 0.578821 -22.942237 -13.486291 0.025420 -1.249017 0.000000 0.000000 0.000000 12.373929 17.534945 -2.679390 1.136370 -10.874612 -15.885020 15.559470 -9.068919 -0.287510 -14.348119 -5.851732 21.788071 -6.337852 0.000001 0.000008 0.000000 0.000000 0.000000 12.373929 17.534945 -2.679390 -0.556640 1.661710 -3.691084 -1.500213 2.983729 -1.791533 0.000000 0.000000 0.000000 0.000000 0.000000 0.000000 -1.439804 3.022475 -1.772861 -2.586328 -0.440189 1.772641 -2.102757 -0.418525 4.166942 0.000000 0.000000 0.000000 -1.439804 3.022475 -1.772861 1.167943 -2.733704 -8.308187 0.000000 0.000000 0.000000 14.445932 40.305500 -51.202592 0.000010 -28.954511 0.000002 0.000000 0.000000 0.000000 -1.439804 3.022475 -1.772861 0.479073 -3.910778 8.668155 0.000000 0.000000 0.000000 -19.097945 -23.017292 32.000280 -0.000004 25.872574 0.000008 0.000000 0.000000 0.000000 
